<svg xmlns="http://www.w3.org/2000/svg" id="epic-games" width="24" height="24" viewBox="0 0 24 24">
  <g id="Group_392" data-name="Group 392" transform="translate(-1 -1)">
    <path id="Path_230" data-name="Path 230" d="M11.394,8.758V6.747c0-.335-.112-.447-.447-.447H10.5V9.093h.447C11.17,9.205,11.394,8.982,11.394,8.758Z" transform="translate(0.727 0.387)" fill="#fff"/>
    <path id="Path_231" data-name="Path 231" d="M9.923,14.6c0,.112-.223.559-.223.67h.559C10.147,15.27,9.923,14.712,9.923,14.6Z" transform="translate(0.634 1.361)" fill="#fff"/>
    <path id="Path_232" data-name="Path 232" d="M19.942,3H5.864C4.747,3,4.3,3.447,4.3,4.564v14.19a1.2,1.2,0,0,0,.223.782l.223.223a.41.41,0,0,0,.335.112l7.039,2.905A2.842,2.842,0,0,0,12.9,23h0a2.842,2.842,0,0,0,.782-.223l7.039-2.905a.41.41,0,0,1,.335-.112l.223-.223a1.064,1.064,0,0,0,.223-.782V4.564C21.618,3.447,21.172,3,19.942,3ZM13.8,5.682h1.117v7.709H13.8Zm.112,9.609h.67v2.346h-.67V16.3a6.237,6.237,0,0,1-.559.894h0a10.305,10.305,0,0,1-.559-.894v1.341h-.559V15.291h.67c.223.335.335.559.559.894A1.379,1.379,0,0,1,13.909,15.291ZM10,5.682h1.788c1.006,0,1.453.447,1.453,1.453V9.145c0,1.006-.447,1.453-1.453,1.453h-.67v2.793H10Zm-3.24,0h2.57V6.8H7.987V9.034H9.328v1.117H7.987V12.5H9.44v1.117H6.758ZM8.993,17.3h0a.853.853,0,0,1-.559.223,1.215,1.215,0,0,1-.559.112c-.223,0-.335-.112-.559-.223-.112-.112-.335-.223-.447-.335a1.322,1.322,0,0,1-.112-1.117,1.542,1.542,0,0,1,.335-.447,1.888,1.888,0,0,1,.559-.223h.894a.39.39,0,0,1,.223.112l.112.112c-.112.112-.335.335-.335.447-.112,0-.112-.112-.223-.112H7.987a.58.58,0,0,0-.447.223c-.112.112-.223.335-.112.447,0,.223.112.335.335.447a.712.712,0,0,0,.67,0v-.335H7.987v-.447H8.993Zm1.229-2.011h.559c.112.335.894,2.123,1.006,2.346h-.67C11,17.525,11,17.3,10.892,17.19H10c-.112.112-.112.335-.223.447H9.1A21.165,21.165,0,0,0,10.222,15.291ZM12.9,21.436l-3.24-1.117h6.7Zm3.911-3.8h-1.9V15.291H16.7v.559H15.473v.335h1.117v.447H15.473v.447H16.7A.837.837,0,0,1,16.814,17.637ZM15.585,12.05V7.022c0-1.006.447-1.453,1.453-1.453H17.6c1.006,0,1.453.447,1.453,1.453V8.587H17.931V7.134c0-.335-.112-.447-.447-.447h-.223c-.335,0-.447.112-.447.447v4.8c0,.335.112.447.447.447h.112c.335,0,.447-.112.447-.447V10.263h1.117V12.05c0,1.006-.447,1.453-1.453,1.453h-.559C16.032,13.5,15.585,12.944,15.585,12.05Zm3.464,4.916c0,.112,0,.112-.112.223,0,.112-.112.112-.112.223-.112.112-.223.112-.335.223-.112,0-.335.112-.447,0H17.82c-.112,0-.112,0-.223-.112a.58.58,0,0,1-.447-.223,1.542,1.542,0,0,0,.335-.447.847.847,0,0,0,.447.223h.223c.112,0,.223,0,.223-.112v-.223c0-.112-.112-.112-.223-.112-.223,0-.335-.112-.559-.112a.847.847,0,0,1-.447-.223.672.672,0,0,1-.112-.447.79.79,0,0,1,.67-.67h.559a.58.58,0,0,1,.447.223.109.109,0,0,1,.112.112c-.112.112-.223.335-.335.447a.853.853,0,0,0-.559-.223h-.223c-.112,0-.112.112-.112.223s.112.112.223.112.223.112.335.112a.853.853,0,0,1,.559.223l.223.223A.41.41,0,0,1,19.049,16.966Z" transform="translate(0 0)" fill="#fff"/>
  </g>
  <rect id="Rectangle_217" data-name="Rectangle 217" width="24" height="24" fill="none"/>
</svg>